<svg style="position: absolute; width: 0; height: 0; overflow: hidden;" aria-hidden="true" version="1.1" xmlns="http://www.w3.org/2000/svg" xmlns:xlink="http://www.w3.org/1999/xlink">
    <defs>
        <symbol id="facebook" viewBox="0 0 24 24">
            <path fill="currentColor" d="M22 12.0251C22 6.4912 17.52 2 12 2S2 6.4912 2 12.0251c0 4.8521 3.44 8.8922 8 9.8245v-6.817H8v-3.0075h2V9.5188C10 7.584 11.57 6.01 13.5 6.01l2.5 0v3.0075l-2 0c-0.55 0-1 0.4512-1 1.0026v2.005h3v3.0075h-3V22c5.05-0.5013 9-4.7719 9-9.9749z" />
        </symbol>
        <symbol id="youtube" viewBox="0 0 24 24">
            <path fill="currentColor" d="M13.6698 11.826l-2.3396-1.0916c-0.2042-0.0948-0.3719 0.0114-0.3719 0.2375v2.0562c0 0.2261 0.1677 0.3323 0.3719 0.2375l2.3386-1.0916c0.2052-0.0959 0.2052-0.2521 1e-3-0.348zM12 2C6.4771 2 2 6.4771 2 12c0 5.5229 4.4771 10 10 10 5.5229 0 10-4.4771 10-10 0-5.5229-4.4771-10-10-10zM12 16.0625c-5.1187 0-5.2083-0.4615-5.2083-4.0625 0-3.601 0.0895-4.0625 5.2083-4.0625 5.1187 0 5.2083 0.4615 5.2083 4.0625 0 3.601-0.0896 4.0625-5.2083 4.0625z" />
        </symbol>
        <symbol id="instagram" viewBox="0 0 24 24">
            <path fill="currentColor" d="M15.8846 3H7.1154c-1.3563 15e-4-2.6565 0.5409-3.6155 1.4999C2.5409 5.4589 2.0015 6.7592 2 8.1154v8.7692c15e-4 1.3563 0.5409 2.6565 1.4999 3.6155 0.959 0.959 2.2592 1.4984 3.6155 1.4999h8.7692c1.3563-15e-4 2.6565-0.5409 3.6155-1.4999S20.9985 18.2409 21 16.8846V8.1154c-15e-4-1.3563-0.5409-2.6565-1.4999-3.6155-0.959-0.959-2.2592-1.4984-3.6155-1.4999zM11.5 16.8846c-0.8672 0-1.7149-0.2571-2.436-0.7389s-1.283-1.1666-1.6149-1.9678-0.4187-1.6828-0.2495-2.5333c0.1692-0.8505 0.5868-1.6318 1.2-2.245s1.3945-1.0308 2.245-1.2c0.8505-0.1692 1.7321-0.0823 2.5333 0.2495s1.486 0.8939 1.9678 1.6149c0.4818 0.7211 0.7389 1.5688 0.7389 2.436-12e-4 1.1625-0.4635 2.277-1.2855 3.0991-0.8221 0.822-1.9366 1.2843-3.0991 1.2855zM16.9808 8.1154c-0.2168 0-0.4288-0.0643-0.609-0.1848-0.1803-0.1205-0.3208-0.2917-0.4037-0.492-0.083-0.2003-0.1047-0.4207-0.0624-0.6333s0.1467-0.408 0.3-0.5613 0.3486-0.2577 0.5612-0.3c0.2127-0.0423 0.4331-0.0206 0.6333 0.0624 0.2003 0.083 0.3715 0.2235 0.492 0.4037 0.1204 0.1803 0.1847 0.3922 0.1847 0.609 0 0.2907-0.1155 0.5696-0.321 0.7751-0.2056 0.2056-0.4844 0.3211-0.7751 0.3211zM14.4231 12.5c0 0.5781-0.1715 1.1433-0.4927 1.624-0.3211 0.4807-0.7777 0.8553-1.3118 1.0766-0.5341 0.2212-1.1218 0.2791-1.6889 0.1663-0.567-0.1128-1.0878-0.3912-1.4966-0.8s-0.6872-0.9296-0.8-1.4966c-0.1128-0.5671-0.0549-1.1548 0.1663-1.6889s0.5959-0.9907 1.0766-1.3118c0.4807-0.3212 1.0459-0.4927 1.624-0.4927 0.7752 0 1.5187 0.308 2.0669 0.8562s0.8562 1.2917 0.8562 2.0669z" />
        </symbol>
    </defs>
</svg>